<mxfile host="65bd71144e">
    <diagram id="bp0GeeYPrl4mhSfGNQKC" name="Page-1">
        <mxGraphModel dx="2541" dy="-149" grid="1" gridSize="10" guides="1" tooltips="1" connect="1" arrows="1" fold="1" page="1" pageScale="1" pageWidth="1169" pageHeight="827" math="0" shadow="0">
            <root>
                <mxCell id="0"/>
                <mxCell id="1" parent="0"/>
                <mxCell id="493" value="" style="rounded=0;whiteSpace=wrap;html=1;strokeWidth=2;fontSize=17;fillColor=none;dashed=1;" vertex="1" parent="1">
                    <mxGeometry x="-973" y="1156.89" width="271" height="249.11" as="geometry"/>
                </mxCell>
                <mxCell id="565" value="" style="rounded=0;whiteSpace=wrap;html=1;dashed=1;strokeWidth=1;fontSize=10;fillColor=none;" vertex="1" parent="1">
                    <mxGeometry x="-497" y="1306.89" width="254" height="79.11" as="geometry"/>
                </mxCell>
                <mxCell id="358" value="&lt;div style=&quot;&quot;&gt;&lt;div style=&quot;font-size: 12px; text-align: center;&quot;&gt;&lt;span style=&quot;background-color: initial;&quot;&gt;IaC-Tools&lt;/span&gt;&lt;/div&gt;&lt;span style=&quot;font-size: 12px;&quot;&gt;&lt;div style=&quot;text-align: center;&quot;&gt;&lt;span style=&quot;background-color: initial;&quot;&gt;created requests&lt;/span&gt;&lt;/div&gt;&lt;/span&gt;&lt;span style=&quot;background-color: initial; font-size: 12px;&quot;&gt;&lt;div style=&quot;text-align: center;&quot;&gt;&lt;br&gt;&lt;/div&gt;&lt;/span&gt;&lt;/div&gt;" style="text;html=1;align=left;verticalAlign=middle;resizable=0;points=[];autosize=1;strokeColor=none;fillColor=none;fontSize=16;fontColor=default;container=0;rotation=90;" parent="1" vertex="1">
                    <mxGeometry x="-286.9999999999999" y="1325.9986014551334" width="110" height="60" as="geometry"/>
                </mxCell>
                <mxCell id="399" value="&lt;font style=&quot;font-size: 14px;&quot;&gt;Automated DVCI environment&lt;/font&gt;" style="text;html=1;align=center;verticalAlign=middle;resizable=0;points=[];autosize=1;strokeColor=none;fillColor=none;fontSize=16;fontColor=default;container=0;rotation=0;" parent="1" vertex="1">
                    <mxGeometry x="-506.9999999999999" y="1415.9986014551334" width="210" height="30" as="geometry"/>
                </mxCell>
                <mxCell id="457" style="edgeStyle=none;html=1;exitX=1;exitY=0.5;exitDx=0;exitDy=0;entryX=0;entryY=0.5;entryDx=0;entryDy=0;startArrow=classic;startFill=1;endArrow=none;endFill=0;fontColor=default;" edge="1" parent="1" source="460" target="468">
                    <mxGeometry relative="1" as="geometry"/>
                </mxCell>
                <mxCell id="458" style="edgeStyle=none;html=1;exitX=0.5;exitY=1;exitDx=0;exitDy=0;startArrow=none;startFill=0;endArrow=classic;endFill=1;dashed=1;fontColor=default;" edge="1" parent="1" source="460">
                    <mxGeometry relative="1" as="geometry">
                        <mxPoint x="-812" y="1376" as="targetPoint"/>
                        <Array as="points">
                            <mxPoint x="-917" y="1396"/>
                            <mxPoint x="-812" y="1396"/>
                        </Array>
                    </mxGeometry>
                </mxCell>
                <mxCell id="459" style="edgeStyle=none;html=1;exitX=0.5;exitY=1;exitDx=0;exitDy=0;dashed=1;startArrow=none;startFill=0;endArrow=classic;endFill=1;fontColor=default;" edge="1" parent="1" source="460">
                    <mxGeometry relative="1" as="geometry">
                        <mxPoint x="-992" y="1396" as="targetPoint"/>
                        <Array as="points">
                            <mxPoint x="-917" y="1396"/>
                        </Array>
                    </mxGeometry>
                </mxCell>
                <mxCell id="460" value="disclaimer and proposal" style="rounded=0;whiteSpace=wrap;html=1;fillColor=none;fontColor=default;strokeColor=#314354;strokeWidth=2;" vertex="1" parent="1">
                    <mxGeometry x="-962" y="1286" width="90" height="30" as="geometry"/>
                </mxCell>
                <mxCell id="461" style="edgeStyle=none;html=1;exitX=0.5;exitY=1;exitDx=0;exitDy=0;startArrow=classic;startFill=1;endArrow=none;endFill=0;fontColor=default;" edge="1" parent="1" source="462">
                    <mxGeometry relative="1" as="geometry">
                        <mxPoint x="-852" y="1416" as="targetPoint"/>
                    </mxGeometry>
                </mxCell>
                <mxCell id="462" value="config change" style="rounded=0;whiteSpace=wrap;html=1;fillColor=none;fontColor=default;strokeColor=#314354;strokeWidth=2;" vertex="1" parent="1">
                    <mxGeometry x="-882" y="1346" width="60" height="30" as="geometry"/>
                </mxCell>
                <mxCell id="463" style="edgeStyle=none;html=1;exitX=0.5;exitY=1;exitDx=0;exitDy=0;startArrow=classic;startFill=1;endArrow=none;endFill=0;fontColor=default;" edge="1" parent="1" source="464">
                    <mxGeometry relative="1" as="geometry">
                        <mxPoint x="-772" y="1416" as="targetPoint"/>
                    </mxGeometry>
                </mxCell>
                <mxCell id="464" value="smartC&lt;br&gt;deploy" style="rounded=0;whiteSpace=wrap;html=1;fillColor=none;fontColor=default;strokeColor=#314354;strokeWidth=2;" vertex="1" parent="1">
                    <mxGeometry x="-802" y="1346" width="60" height="30" as="geometry"/>
                </mxCell>
                <mxCell id="465" style="edgeStyle=none;html=1;exitX=0.5;exitY=1;exitDx=0;exitDy=0;entryX=0.5;entryY=0;entryDx=0;entryDy=0;startArrow=classic;startFill=1;endArrow=none;endFill=0;fontColor=default;" edge="1" parent="1" source="468" target="462">
                    <mxGeometry relative="1" as="geometry">
                        <Array as="points">
                            <mxPoint x="-812" y="1336"/>
                            <mxPoint x="-852" y="1336"/>
                        </Array>
                    </mxGeometry>
                </mxCell>
                <mxCell id="466" style="edgeStyle=none;html=1;exitX=0.5;exitY=1;exitDx=0;exitDy=0;entryX=0.5;entryY=0;entryDx=0;entryDy=0;startArrow=classic;startFill=1;endArrow=none;endFill=0;fontColor=default;" edge="1" parent="1" source="468" target="464">
                    <mxGeometry relative="1" as="geometry">
                        <Array as="points">
                            <mxPoint x="-812" y="1336"/>
                            <mxPoint x="-772" y="1336"/>
                        </Array>
                    </mxGeometry>
                </mxCell>
                <mxCell id="467" style="edgeStyle=none;html=1;exitX=0.5;exitY=1;exitDx=0;exitDy=0;startArrow=classic;startFill=1;endArrow=none;endFill=0;fontColor=default;" edge="1" parent="1" source="468">
                    <mxGeometry relative="1" as="geometry">
                        <mxPoint x="-712" y="1349.87" as="targetPoint"/>
                        <Array as="points">
                            <mxPoint x="-812" y="1336"/>
                            <mxPoint x="-712" y="1336"/>
                        </Array>
                    </mxGeometry>
                </mxCell>
                <mxCell id="468" value="approval process" style="rounded=0;whiteSpace=wrap;html=1;fillColor=none;fontColor=default;strokeColor=#314354;strokeWidth=2;" vertex="1" parent="1">
                    <mxGeometry x="-842" y="1286" width="60" height="30" as="geometry"/>
                </mxCell>
                <mxCell id="469" style="edgeStyle=none;html=1;exitX=0.5;exitY=1;exitDx=0;exitDy=0;entryX=0.5;entryY=0;entryDx=0;entryDy=0;startArrow=classic;startFill=1;endArrow=none;endFill=0;fontColor=default;" edge="1" parent="1" source="472" target="468">
                    <mxGeometry relative="1" as="geometry"/>
                </mxCell>
                <mxCell id="470" style="edgeStyle=none;html=1;exitX=0;exitY=0.5;exitDx=0;exitDy=0;entryX=1;entryY=0.5;entryDx=0;entryDy=0;startArrow=none;startFill=0;endArrow=classic;endFill=1;fontColor=default;" edge="1" parent="1" source="472" target="474">
                    <mxGeometry relative="1" as="geometry"/>
                </mxCell>
                <mxCell id="471" style="edgeStyle=none;html=1;exitX=0.5;exitY=0;exitDx=0;exitDy=0;entryX=0.502;entryY=1.06;entryDx=0;entryDy=0;startArrow=none;startFill=0;endArrow=classic;endFill=1;entryPerimeter=0;fontColor=default;" edge="1" parent="1" source="472" target="481">
                    <mxGeometry relative="1" as="geometry">
                        <mxPoint x="-812" y="1206" as="targetPoint"/>
                    </mxGeometry>
                </mxCell>
                <mxCell id="472" value="CI-pipeline" style="rounded=0;whiteSpace=wrap;html=1;fillColor=none;fontColor=default;strokeColor=#314354;strokeWidth=2;" vertex="1" parent="1">
                    <mxGeometry x="-852" y="1226.09" width="80" height="29.91" as="geometry"/>
                </mxCell>
                <mxCell id="473" style="edgeStyle=none;html=1;startArrow=none;startFill=0;endArrow=classic;endFill=1;dashed=1;exitX=0.556;exitY=1.037;exitDx=0;exitDy=0;exitPerimeter=0;fontColor=default;" edge="1" parent="1" source="474">
                    <mxGeometry relative="1" as="geometry">
                        <mxPoint x="-822" y="1276" as="targetPoint"/>
                        <Array as="points">
                            <mxPoint x="-912" y="1276"/>
                        </Array>
                    </mxGeometry>
                </mxCell>
                <mxCell id="474" value="troubleshooting" style="rounded=0;whiteSpace=wrap;html=1;fillColor=none;fontColor=default;strokeColor=#314354;strokeWidth=2;" vertex="1" parent="1">
                    <mxGeometry x="-962" y="1226.09" width="90" height="29.91" as="geometry"/>
                </mxCell>
                <mxCell id="475" value="&lt;span style=&quot;&quot;&gt;&lt;font style=&quot;&quot;&gt;&lt;font style=&quot;font-size: 35px;&quot;&gt;...&lt;/font&gt;&lt;br&gt;&lt;/font&gt;&lt;/span&gt;" style="text;html=1;align=center;verticalAlign=middle;resizable=0;points=[];autosize=1;strokeColor=none;fillColor=none;fontColor=default;rotation=-90;fontStyle=1;" vertex="1" parent="1">
                    <mxGeometry x="-763.0000000000003" y="1332.1599999999999" width="50" height="60" as="geometry"/>
                </mxCell>
                <mxCell id="476" value="&lt;font style=&quot;font-size: 8px;&quot;&gt;&lt;span style=&quot;font-size: 8px;&quot;&gt;&lt;span style=&quot;font-size: 8px;&quot;&gt;YES&lt;/span&gt;&lt;br style=&quot;font-size: 8px;&quot;&gt;&lt;/span&gt;&lt;/font&gt;" style="text;html=1;align=center;verticalAlign=middle;resizable=0;points=[];autosize=1;strokeColor=none;fillColor=none;fontSize=8;fontColor=default;fontStyle=1;" vertex="1" parent="1">
                    <mxGeometry x="-822" y="1263.48" width="40" height="20" as="geometry"/>
                </mxCell>
                <mxCell id="477" value="&lt;font style=&quot;font-size: 8px;&quot;&gt;&lt;span style=&quot;font-size: 8px;&quot;&gt;&lt;span style=&quot;font-size: 8px;&quot;&gt;NO&lt;/span&gt;&lt;br style=&quot;font-size: 8px;&quot;&gt;&lt;/span&gt;&lt;/font&gt;" style="text;html=1;align=center;verticalAlign=middle;resizable=0;points=[];autosize=1;strokeColor=none;fillColor=none;fontSize=8;fontColor=default;fontStyle=1;" vertex="1" parent="1">
                    <mxGeometry x="-872" y="1283.48" width="40" height="20" as="geometry"/>
                </mxCell>
                <mxCell id="478" value="&lt;font style=&quot;font-size: 8px;&quot;&gt;&lt;span style=&quot;font-size: 8px;&quot;&gt;&lt;span style=&quot;font-size: 8px;&quot;&gt;YES&lt;/span&gt;&lt;br style=&quot;font-size: 8px;&quot;&gt;&lt;/span&gt;&lt;/font&gt;" style="text;html=1;align=center;verticalAlign=middle;resizable=0;points=[];autosize=1;strokeColor=none;fillColor=none;fontSize=8;fontColor=default;fontStyle=1;" vertex="1" parent="1">
                    <mxGeometry x="-822" y="1204.32" width="40" height="20" as="geometry"/>
                </mxCell>
                <mxCell id="479" value="&lt;font style=&quot;font-size: 8px;&quot;&gt;&lt;span style=&quot;font-size: 8px;&quot;&gt;&lt;span style=&quot;font-size: 8px;&quot;&gt;NO&lt;/span&gt;&lt;br style=&quot;font-size: 8px;&quot;&gt;&lt;/span&gt;&lt;/font&gt;" style="text;html=1;align=center;verticalAlign=middle;resizable=0;points=[];autosize=1;strokeColor=none;fillColor=none;fontSize=8;fontColor=default;fontStyle=1;" vertex="1" parent="1">
                    <mxGeometry x="-882" y="1221.4299999999998" width="40" height="20" as="geometry"/>
                </mxCell>
                <mxCell id="480" style="edgeStyle=none;html=1;exitX=0.5;exitY=0;exitDx=0;exitDy=0;fontSize=8;startArrow=none;startFill=0;endArrow=classic;endFill=1;" edge="1" parent="1" source="481">
                    <mxGeometry relative="1" as="geometry">
                        <mxPoint x="-812" y="1146" as="targetPoint"/>
                    </mxGeometry>
                </mxCell>
                <mxCell id="481" value="CD-pipeline" style="rounded=0;whiteSpace=wrap;html=1;fillColor=none;fontColor=default;strokeColor=#314354;strokeWidth=2;" vertex="1" parent="1">
                    <mxGeometry x="-852" y="1166" width="80" height="30" as="geometry"/>
                </mxCell>
                <mxCell id="482" style="edgeStyle=none;html=1;fontSize=8;startArrow=none;startFill=0;endArrow=classic;endFill=1;fillColor=#dae8fc;gradientColor=#7ea6e0;strokeColor=#6c8ebf;" edge="1" parent="1" source="483">
                    <mxGeometry relative="1" as="geometry">
                        <mxPoint x="-812" y="1096" as="targetPoint"/>
                    </mxGeometry>
                </mxCell>
                <mxCell id="483" value="Network&lt;br&gt;Gatekeeper" style="rounded=0;whiteSpace=wrap;html=1;fillColor=none;strokeColor=#6c8ebf;strokeWidth=2;gradientColor=#7ea6e0;" vertex="1" parent="1">
                    <mxGeometry x="-852" y="1115.1100000000001" width="80" height="30" as="geometry"/>
                </mxCell>
                <mxCell id="484" style="edgeStyle=none;html=1;fontSize=8;startArrow=none;startFill=0;endArrow=classic;endFill=1;dashed=1;exitX=0;exitY=0.5;exitDx=0;exitDy=0;entryX=0.542;entryY=-0.02;entryDx=0;entryDy=0;entryPerimeter=0;" edge="1" parent="1" source="486" target="474">
                    <mxGeometry relative="1" as="geometry">
                        <mxPoint x="-852" y="1086" as="sourcePoint"/>
                        <mxPoint x="-912" y="1226" as="targetPoint"/>
                        <Array as="points">
                            <mxPoint x="-912" y="1081"/>
                        </Array>
                    </mxGeometry>
                </mxCell>
                <mxCell id="485" style="edgeStyle=none;html=1;fontSize=8;startArrow=none;startFill=0;endArrow=classic;endFill=1;entryX=0;entryY=0.5;entryDx=0;entryDy=0;exitX=1;exitY=0.5;exitDx=0;exitDy=0;" edge="1" parent="1" source="486" target="490">
                    <mxGeometry relative="1" as="geometry">
                        <mxPoint x="-732" y="1086" as="targetPoint"/>
                        <mxPoint x="-772" y="1086" as="sourcePoint"/>
                    </mxGeometry>
                </mxCell>
                <mxCell id="572" style="edgeStyle=none;html=1;exitX=0.5;exitY=0;exitDx=0;exitDy=0;entryX=1;entryY=0.5;entryDx=0;entryDy=0;strokeColor=#314354;strokeWidth=2;fontSize=12;startArrow=none;startFill=0;endArrow=classic;endFill=1;fillColor=#647687;" edge="1" parent="1" source="486" target="540">
                    <mxGeometry relative="1" as="geometry">
                        <Array as="points">
                            <mxPoint x="-813" y="1046"/>
                            <mxPoint x="-253" y="1046"/>
                            <mxPoint x="-253" y="1231"/>
                        </Array>
                    </mxGeometry>
                </mxCell>
                <mxCell id="486" value="Blockchain" style="rounded=0;whiteSpace=wrap;html=1;fillColor=none;fontColor=default;strokeColor=#314354;strokeWidth=2;" vertex="1" parent="1">
                    <mxGeometry x="-852" y="1066" width="80" height="30" as="geometry"/>
                </mxCell>
                <mxCell id="487" value="&lt;font style=&quot;font-size: 8px;&quot;&gt;&lt;span style=&quot;font-size: 8px;&quot;&gt;&lt;span style=&quot;font-size: 8px;&quot;&gt;NO&lt;/span&gt;&lt;br style=&quot;font-size: 8px;&quot;&gt;&lt;/span&gt;&lt;/font&gt;" style="text;html=1;align=center;verticalAlign=middle;resizable=0;points=[];autosize=1;strokeColor=none;fillColor=none;fontSize=8;fontColor=default;fontStyle=1" vertex="1" parent="1">
                    <mxGeometry x="-882" y="1066.09" width="40" height="20" as="geometry"/>
                </mxCell>
                <mxCell id="488" value="&lt;font style=&quot;font-size: 8px;&quot;&gt;&lt;span style=&quot;font-size: 8px;&quot;&gt;&lt;span style=&quot;font-size: 8px;&quot;&gt;YES&lt;/span&gt;&lt;br style=&quot;font-size: 8px;&quot;&gt;&lt;/span&gt;&lt;/font&gt;" style="text;html=1;align=center;verticalAlign=middle;resizable=0;points=[];autosize=1;strokeColor=none;fillColor=none;fontSize=8;fontColor=default;fontStyle=1" vertex="1" parent="1">
                    <mxGeometry x="-782" y="1066.0900000000001" width="40" height="20" as="geometry"/>
                </mxCell>
                <mxCell id="489" value="&lt;font style=&quot;font-size: 14px;&quot;&gt;GIT environment&lt;/font&gt;" style="text;html=1;align=center;verticalAlign=middle;resizable=0;points=[];autosize=1;strokeColor=none;fillColor=none;fontSize=16;fontColor=default;container=0;rotation=-90;" vertex="1" parent="1">
                    <mxGeometry x="-782" y="1204.3186014551331" width="130" height="30" as="geometry"/>
                </mxCell>
                <mxCell id="490" value="DVCI" style="rounded=0;whiteSpace=wrap;html=1;fillColor=none;strokeColor=#b85450;strokeWidth=2;gradientColor=#ea6b66;" vertex="1" parent="1">
                    <mxGeometry x="-732" y="1066" width="90" height="30" as="geometry"/>
                </mxCell>
                <mxCell id="520" style="edgeStyle=none;html=1;exitX=0.5;exitY=0;exitDx=0;exitDy=0;entryX=0.5;entryY=1;entryDx=0;entryDy=0;" edge="1" parent="1" source="511" target="517">
                    <mxGeometry relative="1" as="geometry">
                        <Array as="points">
                            <mxPoint x="-633" y="1316"/>
                            <mxPoint x="-593" y="1316"/>
                        </Array>
                    </mxGeometry>
                </mxCell>
                <mxCell id="554" style="edgeStyle=none;html=1;exitX=0.5;exitY=1;exitDx=0;exitDy=0;strokeColor=default;fontSize=10;startArrow=classic;startFill=1;endArrow=none;endFill=0;" edge="1" parent="1" source="511">
                    <mxGeometry relative="1" as="geometry">
                        <mxPoint x="-633" y="1406" as="targetPoint"/>
                    </mxGeometry>
                </mxCell>
                <mxCell id="511" value="DRN&lt;br&gt;access&lt;br&gt;requests" style="rounded=0;whiteSpace=wrap;html=1;fillColor=none;fontColor=default;strokeColor=#314354;strokeWidth=2;" vertex="1" parent="1">
                    <mxGeometry x="-662.5" y="1326" width="60" height="50" as="geometry"/>
                </mxCell>
                <mxCell id="521" style="edgeStyle=none;html=1;exitX=0.5;exitY=0;exitDx=0;exitDy=0;entryX=0.5;entryY=1;entryDx=0;entryDy=0;" edge="1" parent="1" source="512" target="517">
                    <mxGeometry relative="1" as="geometry">
                        <Array as="points">
                            <mxPoint x="-553" y="1316"/>
                            <mxPoint x="-593" y="1316"/>
                        </Array>
                    </mxGeometry>
                </mxCell>
                <mxCell id="555" style="edgeStyle=none;html=1;exitX=0.5;exitY=1;exitDx=0;exitDy=0;strokeColor=default;fontSize=10;startArrow=classic;startFill=1;endArrow=none;endFill=0;" edge="1" parent="1" source="512">
                    <mxGeometry relative="1" as="geometry">
                        <mxPoint x="-551" y="1406" as="targetPoint"/>
                    </mxGeometry>
                </mxCell>
                <mxCell id="512" value="OpStN&lt;br&gt;access&lt;br&gt;requests" style="rounded=0;whiteSpace=wrap;html=1;fillColor=none;fontColor=default;strokeColor=#314354;strokeWidth=2;" vertex="1" parent="1">
                    <mxGeometry x="-581.5" y="1326" width="60" height="50" as="geometry"/>
                </mxCell>
                <mxCell id="536" style="edgeStyle=none;html=1;exitX=0.5;exitY=0;exitDx=0;exitDy=0;entryX=0.5;entryY=1;entryDx=0;entryDy=0;strokeColor=default;" edge="1" parent="1" source="513" target="518">
                    <mxGeometry relative="1" as="geometry">
                        <Array as="points">
                            <mxPoint x="-462" y="1316"/>
                            <mxPoint x="-383" y="1316"/>
                        </Array>
                    </mxGeometry>
                </mxCell>
                <mxCell id="559" style="edgeStyle=none;html=1;exitX=0.5;exitY=1;exitDx=0;exitDy=0;strokeColor=#6F0000;fontSize=10;startArrow=none;startFill=0;endArrow=classic;endFill=1;dashed=1;fillColor=#a20025;" edge="1" parent="1" source="513">
                    <mxGeometry relative="1" as="geometry">
                        <mxPoint x="-463" y="1416" as="targetPoint"/>
                    </mxGeometry>
                </mxCell>
                <mxCell id="561" style="edgeStyle=none;html=1;exitX=0.149;exitY=-0.003;exitDx=0;exitDy=0;entryX=0.045;entryY=1;entryDx=0;entryDy=0;entryPerimeter=0;strokeColor=#2D7600;fontSize=10;startArrow=classic;startFill=1;endArrow=none;endFill=0;exitPerimeter=0;fillColor=#60a917;" edge="1" parent="1" source="513" target="518">
                    <mxGeometry relative="1" as="geometry"/>
                </mxCell>
                <mxCell id="513" value="&lt;font style=&quot;font-size: 10px;&quot;&gt;component&lt;br&gt;departure&lt;br&gt;requests&lt;/font&gt;" style="rounded=0;whiteSpace=wrap;html=1;fillColor=none;fontColor=default;strokeColor=#314354;strokeWidth=2;" vertex="1" parent="1">
                    <mxGeometry x="-492" y="1326" width="60" height="50" as="geometry"/>
                </mxCell>
                <mxCell id="538" style="edgeStyle=none;html=1;exitX=0.5;exitY=0;exitDx=0;exitDy=0;strokeColor=default;" edge="1" parent="1" source="514">
                    <mxGeometry relative="1" as="geometry">
                        <mxPoint x="-383" y="1296" as="targetPoint"/>
                    </mxGeometry>
                </mxCell>
                <mxCell id="562" style="edgeStyle=none;html=1;exitX=0.25;exitY=0;exitDx=0;exitDy=0;entryX=0.432;entryY=1.036;entryDx=0;entryDy=0;entryPerimeter=0;strokeColor=#2D7600;fontSize=10;startArrow=classic;startFill=1;endArrow=none;endFill=0;fillColor=#60a917;" edge="1" parent="1" source="514" target="518">
                    <mxGeometry relative="1" as="geometry"/>
                </mxCell>
                <mxCell id="571" style="edgeStyle=none;html=1;exitX=0.328;exitY=1.019;exitDx=0;exitDy=0;strokeColor=#314354;fontSize=10;startArrow=classic;startFill=1;endArrow=none;endFill=0;exitPerimeter=0;fillColor=#647687;strokeWidth=2;" edge="1" parent="1" source="514">
                    <mxGeometry relative="1" as="geometry">
                        <mxPoint x="-393" y="1396" as="targetPoint"/>
                    </mxGeometry>
                </mxCell>
                <mxCell id="578" style="edgeStyle=none;html=1;exitX=0.75;exitY=0;exitDx=0;exitDy=0;entryX=0.568;entryY=1;entryDx=0;entryDy=0;entryPerimeter=0;strokeColor=#2D7600;strokeWidth=2;fontSize=10;startArrow=none;startFill=0;endArrow=classic;endFill=1;fillColor=#60a917;" edge="1" parent="1" source="514" target="518">
                    <mxGeometry relative="1" as="geometry"/>
                </mxCell>
                <mxCell id="514" value="&lt;font style=&quot;font-size: 10px;&quot;&gt;environment&lt;br&gt;cration&lt;br&gt;request&lt;br&gt;&lt;/font&gt;" style="rounded=0;whiteSpace=wrap;html=1;fillColor=none;fontColor=default;strokeColor=#314354;strokeWidth=2;" vertex="1" parent="1">
                    <mxGeometry x="-413" y="1326" width="60" height="50" as="geometry"/>
                </mxCell>
                <mxCell id="516" value="&lt;span style=&quot;&quot;&gt;&lt;font style=&quot;&quot;&gt;&lt;font style=&quot;font-size: 35px;&quot;&gt;...&lt;/font&gt;&lt;br&gt;&lt;/font&gt;&lt;/span&gt;" style="text;html=1;align=center;verticalAlign=middle;resizable=0;points=[];autosize=1;strokeColor=none;fillColor=none;fontColor=default;rotation=-90;fontStyle=1;" vertex="1" parent="1">
                    <mxGeometry x="-297.00000000000034" y="1320.9999999999998" width="50" height="60" as="geometry"/>
                </mxCell>
                <mxCell id="524" style="edgeStyle=none;html=1;exitX=0.5;exitY=0;exitDx=0;exitDy=0;entryX=0.5;entryY=1;entryDx=0;entryDy=0;strokeColor=#6C8EBF;dashed=1;" edge="1" parent="1" source="517" target="522">
                    <mxGeometry relative="1" as="geometry"/>
                </mxCell>
                <mxCell id="558" style="edgeStyle=none;html=1;exitX=0.5;exitY=1;exitDx=0;exitDy=0;entryX=0.8;entryY=0.65;entryDx=0;entryDy=0;entryPerimeter=0;strokeColor=default;fontSize=10;startArrow=classic;startFill=1;endArrow=none;endFill=0;" edge="1" parent="1" source="517" target="557">
                    <mxGeometry relative="1" as="geometry">
                        <Array as="points">
                            <mxPoint x="-593" y="1316"/>
                            <mxPoint x="-513" y="1316"/>
                        </Array>
                    </mxGeometry>
                </mxCell>
                <mxCell id="517" value="Network Gatekeeper" style="rounded=0;whiteSpace=wrap;html=1;fillColor=none;strokeColor=#6c8ebf;strokeWidth=2;gradientColor=#7ea6e0;" vertex="1" parent="1">
                    <mxGeometry x="-663" y="1266" width="140" height="30" as="geometry"/>
                </mxCell>
                <mxCell id="539" style="edgeStyle=none;html=1;exitX=0.5;exitY=1;exitDx=0;exitDy=0;entryX=0.923;entryY=0.75;entryDx=0;entryDy=0;entryPerimeter=0;strokeColor=default;startArrow=classic;startFill=1;endArrow=none;endFill=0;" edge="1" parent="1" source="518" target="516">
                    <mxGeometry relative="1" as="geometry">
                        <Array as="points">
                            <mxPoint x="-383" y="1316"/>
                            <mxPoint x="-257" y="1316"/>
                        </Array>
                    </mxGeometry>
                </mxCell>
                <mxCell id="541" style="edgeStyle=none;html=1;exitX=0.5;exitY=0;exitDx=0;exitDy=0;entryX=0.5;entryY=1;entryDx=0;entryDy=0;strokeColor=default;startArrow=none;startFill=0;endArrow=classic;endFill=1;" edge="1" parent="1" source="518" target="540">
                    <mxGeometry relative="1" as="geometry"/>
                </mxCell>
                <mxCell id="568" style="edgeStyle=none;html=1;exitX=1.001;exitY=0.663;exitDx=0;exitDy=0;entryX=0.319;entryY=1.017;entryDx=0;entryDy=0;entryPerimeter=0;strokeColor=#314354;fontSize=10;startArrow=none;startFill=0;endArrow=classic;endFill=1;fillColor=#647687;strokeWidth=2;exitPerimeter=0;" edge="1" parent="1" source="518" target="513">
                    <mxGeometry relative="1" as="geometry">
                        <Array as="points">
                            <mxPoint x="-253" y="1286"/>
                            <mxPoint x="-253" y="1396"/>
                            <mxPoint x="-473" y="1396"/>
                        </Array>
                    </mxGeometry>
                </mxCell>
                <mxCell id="518" value="OpenStack controller environment" style="rounded=0;whiteSpace=wrap;html=1;fillColor=none;fontColor=default;strokeColor=#314354;strokeWidth=2;" vertex="1" parent="1">
                    <mxGeometry x="-493" y="1266" width="220" height="30" as="geometry"/>
                </mxCell>
                <mxCell id="537" style="edgeStyle=none;html=1;exitX=0.5;exitY=0;exitDx=0;exitDy=0;strokeColor=default;" edge="1" parent="1" source="519">
                    <mxGeometry relative="1" as="geometry">
                        <mxPoint x="-383" y="1296" as="targetPoint"/>
                        <Array as="points">
                            <mxPoint x="-303" y="1316"/>
                            <mxPoint x="-383" y="1316"/>
                        </Array>
                    </mxGeometry>
                </mxCell>
                <mxCell id="563" style="edgeStyle=none;html=1;exitX=0.25;exitY=0;exitDx=0;exitDy=0;entryX=0.798;entryY=1.009;entryDx=0;entryDy=0;entryPerimeter=0;strokeColor=#2D7600;fontSize=10;startArrow=classic;startFill=1;endArrow=none;endFill=0;fillColor=#60a917;" edge="1" parent="1" source="519" target="518">
                    <mxGeometry relative="1" as="geometry"/>
                </mxCell>
                <mxCell id="567" style="edgeStyle=none;html=1;exitX=0.75;exitY=0;exitDx=0;exitDy=0;entryX=0.936;entryY=1;entryDx=0;entryDy=0;entryPerimeter=0;strokeColor=#2D7600;fontSize=10;startArrow=none;startFill=0;endArrow=classic;endFill=1;fillColor=#60a917;strokeWidth=2;" edge="1" parent="1" source="519" target="518">
                    <mxGeometry relative="1" as="geometry"/>
                </mxCell>
                <mxCell id="569" style="edgeStyle=none;html=1;exitX=0.315;exitY=1.023;exitDx=0;exitDy=0;strokeColor=#314354;fontSize=10;startArrow=classic;startFill=1;endArrow=none;endFill=0;exitPerimeter=0;fillColor=#647687;strokeWidth=2;" edge="1" parent="1" source="519">
                    <mxGeometry relative="1" as="geometry">
                        <mxPoint x="-313" y="1396" as="targetPoint"/>
                    </mxGeometry>
                </mxCell>
                <mxCell id="519" value="&lt;font style=&quot;font-size: 10px;&quot;&gt;environment&lt;br&gt;orchestration&lt;br&gt;requests&lt;/font&gt;" style="rounded=0;whiteSpace=wrap;html=1;fillColor=none;fontColor=default;strokeColor=#314354;strokeWidth=2;" vertex="1" parent="1">
                    <mxGeometry x="-332" y="1326" width="60" height="50" as="geometry"/>
                </mxCell>
                <mxCell id="525" style="edgeStyle=none;html=1;entryX=0.5;entryY=1;entryDx=0;entryDy=0;dashed=1;strokeColor=#6C8EBF;" edge="1" parent="1" source="522" target="523">
                    <mxGeometry relative="1" as="geometry"/>
                </mxCell>
                <mxCell id="526" style="edgeStyle=none;html=1;exitX=0;exitY=0.5;exitDx=0;exitDy=0;dashed=1;strokeColor=#6C8EBF;" edge="1" parent="1" source="522">
                    <mxGeometry relative="1" as="geometry">
                        <mxPoint x="-682.5" y="1377.9199999999998" as="targetPoint"/>
                        <Array as="points">
                            <mxPoint x="-682.5" y="1237.9199999999998"/>
                        </Array>
                    </mxGeometry>
                </mxCell>
                <mxCell id="522" value="base-verification" style="rounded=0;whiteSpace=wrap;html=1;fillColor=none;strokeColor=#6c8ebf;strokeWidth=1;gradientColor=#7ea6e0;dashed=1;" vertex="1" parent="1">
                    <mxGeometry x="-663" y="1226" width="140" height="20" as="geometry"/>
                </mxCell>
                <mxCell id="530" style="edgeStyle=none;html=1;exitX=0.5;exitY=0;exitDx=0;exitDy=0;entryX=0.5;entryY=1;entryDx=0;entryDy=0;strokeColor=default;" edge="1" parent="1" source="523" target="529">
                    <mxGeometry relative="1" as="geometry"/>
                </mxCell>
                <mxCell id="523" value="smartContact-transaktion" style="rounded=0;whiteSpace=wrap;html=1;fillColor=none;strokeColor=#6c8ebf;strokeWidth=1;gradientColor=#7ea6e0;dashed=1;" vertex="1" parent="1">
                    <mxGeometry x="-663" y="1186" width="140" height="20" as="geometry"/>
                </mxCell>
                <mxCell id="527" value="&lt;font style=&quot;font-size: 8px;&quot;&gt;&lt;span style=&quot;font-size: 8px;&quot;&gt;&lt;span style=&quot;font-size: 8px;&quot;&gt;NO&lt;/span&gt;&lt;br style=&quot;font-size: 8px;&quot;&gt;&lt;/span&gt;&lt;/font&gt;" style="text;html=1;align=center;verticalAlign=middle;resizable=0;points=[];autosize=1;strokeColor=none;fillColor=none;fontSize=8;fontColor=default;fontStyle=1;" vertex="1" parent="1">
                    <mxGeometry x="-691.5" y="1223.3499999999997" width="40" height="20" as="geometry"/>
                </mxCell>
                <mxCell id="528" value="&lt;font style=&quot;font-size: 8px;&quot;&gt;&lt;span style=&quot;font-size: 8px;&quot;&gt;&lt;span style=&quot;font-size: 8px;&quot;&gt;YES&lt;/span&gt;&lt;br style=&quot;font-size: 8px;&quot;&gt;&lt;/span&gt;&lt;/font&gt;" style="text;html=1;align=center;verticalAlign=middle;resizable=0;points=[];autosize=1;strokeColor=none;fillColor=none;fontSize=8;fontColor=default;fontStyle=1;" vertex="1" parent="1">
                    <mxGeometry x="-596.5" y="1208.0099999999998" width="40" height="20" as="geometry"/>
                </mxCell>
                <mxCell id="534" style="edgeStyle=none;html=1;exitX=0.238;exitY=0.904;exitDx=0;exitDy=0;entryX=1.009;entryY=0.561;entryDx=0;entryDy=0;strokeColor=default;exitPerimeter=0;entryPerimeter=0;" edge="1" parent="1" source="535" target="490">
                    <mxGeometry relative="1" as="geometry">
                        <mxPoint x="-651.5" y="1082.92" as="targetPoint"/>
                        <Array as="points">
                            <mxPoint x="-592.5" y="1082.92"/>
                        </Array>
                    </mxGeometry>
                </mxCell>
                <mxCell id="553" style="edgeStyle=none;html=1;exitX=1;exitY=0.5;exitDx=0;exitDy=0;strokeColor=default;fontSize=10;startArrow=none;startFill=0;endArrow=classic;endFill=1;dashed=1;" edge="1" parent="1" source="529">
                    <mxGeometry relative="1" as="geometry">
                        <mxPoint x="-523" y="1076" as="targetPoint"/>
                        <Array as="points">
                            <mxPoint x="-523" y="1151"/>
                        </Array>
                    </mxGeometry>
                </mxCell>
                <mxCell id="573" style="edgeStyle=none;html=1;exitX=1;exitY=0.75;exitDx=0;exitDy=0;entryX=0;entryY=0.5;entryDx=0;entryDy=0;strokeColor=#314354;strokeWidth=2;fontSize=12;startArrow=none;startFill=0;endArrow=classic;endFill=1;fillColor=#647687;" edge="1" parent="1" source="529" target="540">
                    <mxGeometry relative="1" as="geometry">
                        <Array as="points">
                            <mxPoint x="-513" y="1159"/>
                            <mxPoint x="-513" y="1231"/>
                        </Array>
                    </mxGeometry>
                </mxCell>
                <mxCell id="529" value="Blockchain" style="rounded=0;whiteSpace=wrap;html=1;fillColor=none;fontColor=default;strokeColor=#314354;strokeWidth=2;" vertex="1" parent="1">
                    <mxGeometry x="-633" y="1136" width="80" height="30" as="geometry"/>
                </mxCell>
                <mxCell id="533" value="&lt;font style=&quot;font-size: 8px;&quot;&gt;&lt;span style=&quot;font-size: 8px;&quot;&gt;&lt;span style=&quot;font-size: 8px;&quot;&gt;NO&lt;/span&gt;&lt;br style=&quot;font-size: 8px;&quot;&gt;&lt;/span&gt;&lt;/font&gt;" style="text;html=1;align=center;verticalAlign=middle;resizable=0;points=[];autosize=1;strokeColor=none;fillColor=none;fontSize=8;fontColor=default;fontStyle=1;" vertex="1" parent="1">
                    <mxGeometry x="-557" y="1135.9999999999995" width="40" height="20" as="geometry"/>
                </mxCell>
                <mxCell id="535" value="&lt;font style=&quot;font-size: 8px;&quot;&gt;&lt;span style=&quot;font-size: 8px;&quot;&gt;&lt;span style=&quot;font-size: 8px;&quot;&gt;YES&lt;/span&gt;&lt;br style=&quot;font-size: 8px;&quot;&gt;&lt;/span&gt;&lt;/font&gt;" style="text;html=1;align=center;verticalAlign=middle;resizable=0;points=[];autosize=1;strokeColor=none;fillColor=none;fontSize=8;fontColor=default;fontStyle=1;" vertex="1" parent="1">
                    <mxGeometry x="-602.5" y="1117.92" width="40" height="20" as="geometry"/>
                </mxCell>
                <mxCell id="543" style="edgeStyle=none;html=1;exitX=0.5;exitY=0;exitDx=0;exitDy=0;entryX=0.5;entryY=1;entryDx=0;entryDy=0;strokeColor=#6C8EBF;startArrow=none;startFill=0;endArrow=classic;endFill=1;dashed=1;" edge="1" parent="1" source="540" target="542">
                    <mxGeometry relative="1" as="geometry"/>
                </mxCell>
                <mxCell id="564" style="edgeStyle=none;html=1;exitX=0.284;exitY=1.067;exitDx=0;exitDy=0;entryX=0.36;entryY=0.022;entryDx=0;entryDy=0;entryPerimeter=0;strokeColor=#d6b656;fontSize=10;startArrow=classic;startFill=1;endArrow=none;endFill=0;fillColor=#fff2cc;gradientColor=#ffd966;exitPerimeter=0;" edge="1" parent="1" source="540" target="518">
                    <mxGeometry relative="1" as="geometry"/>
                </mxCell>
                <mxCell id="574" style="edgeStyle=none;html=1;exitX=0;exitY=1;exitDx=0;exitDy=0;entryX=0.182;entryY=0;entryDx=0;entryDy=0;entryPerimeter=0;strokeColor=#314354;strokeWidth=2;fontSize=12;startArrow=none;startFill=0;endArrow=classic;endFill=1;fillColor=#647687;" edge="1" parent="1" source="540" target="518">
                    <mxGeometry relative="1" as="geometry"/>
                </mxCell>
                <mxCell id="575" style="edgeStyle=none;html=1;exitX=1;exitY=1;exitDx=0;exitDy=0;entryX=0.818;entryY=0;entryDx=0;entryDy=0;entryPerimeter=0;strokeColor=#314354;strokeWidth=2;fontSize=12;startArrow=none;startFill=0;endArrow=classic;endFill=1;fillColor=#647687;" edge="1" parent="1" source="540" target="518">
                    <mxGeometry relative="1" as="geometry"/>
                </mxCell>
                <mxCell id="540" value="Network Gatekeeper" style="rounded=0;whiteSpace=wrap;html=1;fillColor=none;strokeColor=#6c8ebf;strokeWidth=2;gradientColor=#7ea6e0;" vertex="1" parent="1">
                    <mxGeometry x="-453" y="1216" width="140" height="30" as="geometry"/>
                </mxCell>
                <mxCell id="545" style="edgeStyle=none;html=1;exitX=0.5;exitY=0;exitDx=0;exitDy=0;entryX=0.5;entryY=1;entryDx=0;entryDy=0;strokeColor=default;startArrow=none;startFill=0;endArrow=classic;endFill=1;" edge="1" parent="1" source="542" target="544">
                    <mxGeometry relative="1" as="geometry"/>
                </mxCell>
                <mxCell id="542" value="smartContact-transaktion" style="rounded=0;whiteSpace=wrap;html=1;fillColor=none;strokeColor=#6c8ebf;strokeWidth=1;gradientColor=#7ea6e0;dashed=1;" vertex="1" parent="1">
                    <mxGeometry x="-453" y="1175.5700000000002" width="140" height="20.43" as="geometry"/>
                </mxCell>
                <mxCell id="546" style="edgeStyle=none;html=1;entryX=0.046;entryY=-0.033;entryDx=0;entryDy=0;entryPerimeter=0;strokeColor=#d6b656;startArrow=none;startFill=0;endArrow=classic;endFill=1;dashed=1;fillColor=#fff2cc;gradientColor=#ffd966;" edge="1" parent="1" source="544" target="518">
                    <mxGeometry relative="1" as="geometry">
                        <Array as="points">
                            <mxPoint x="-483" y="1141"/>
                        </Array>
                    </mxGeometry>
                </mxCell>
                <mxCell id="551" style="edgeStyle=none;html=1;exitX=1;exitY=0.5;exitDx=0;exitDy=0;entryX=0.952;entryY=-0.06;entryDx=0;entryDy=0;entryPerimeter=0;strokeColor=#2D7600;startArrow=none;startFill=0;endArrow=classic;endFill=1;fillColor=#60a917;" edge="1" parent="1" source="544" target="518">
                    <mxGeometry relative="1" as="geometry">
                        <Array as="points">
                            <mxPoint x="-284" y="1141"/>
                        </Array>
                    </mxGeometry>
                </mxCell>
                <mxCell id="544" value="Blockchain" style="rounded=0;whiteSpace=wrap;html=1;fillColor=none;fontColor=default;strokeColor=#314354;strokeWidth=2;" vertex="1" parent="1">
                    <mxGeometry x="-423" y="1126" width="80" height="30" as="geometry"/>
                </mxCell>
                <mxCell id="547" value="&lt;font style=&quot;font-size: 8px;&quot;&gt;&lt;span style=&quot;font-size: 8px;&quot;&gt;&lt;span style=&quot;font-size: 8px;&quot;&gt;NO&lt;/span&gt;&lt;br style=&quot;font-size: 8px;&quot;&gt;&lt;/span&gt;&lt;/font&gt;" style="text;html=1;align=center;verticalAlign=middle;resizable=0;points=[];autosize=1;strokeColor=none;fillColor=none;fontSize=8;fontColor=default;fontStyle=1;" vertex="1" parent="1">
                    <mxGeometry x="-481" y="1125.9999999999998" width="40" height="20" as="geometry"/>
                </mxCell>
                <mxCell id="550" value="&lt;font style=&quot;font-size: 8px;&quot;&gt;&lt;span style=&quot;font-size: 8px;&quot;&gt;&lt;span style=&quot;font-size: 8px;&quot;&gt;YES&lt;/span&gt;&lt;br style=&quot;font-size: 8px;&quot;&gt;&lt;/span&gt;&lt;/font&gt;" style="text;html=1;align=center;verticalAlign=middle;resizable=0;points=[];autosize=1;strokeColor=none;fillColor=none;fontSize=8;fontColor=default;fontStyle=1;" vertex="1" parent="1">
                    <mxGeometry x="-322" y="1125.11" width="40" height="20" as="geometry"/>
                </mxCell>
                <mxCell id="552" value="" style="endArrow=none;dashed=1;html=1;strokeColor=default;fontSize=10;strokeWidth=2;" edge="1" parent="1">
                    <mxGeometry width="50" height="50" relative="1" as="geometry">
                        <mxPoint x="-503" y="1446" as="sourcePoint"/>
                        <mxPoint x="-503" y="1036" as="targetPoint"/>
                    </mxGeometry>
                </mxCell>
                <mxCell id="557" value="&lt;span style=&quot;&quot;&gt;&lt;font style=&quot;&quot;&gt;&lt;font style=&quot;font-size: 35px;&quot;&gt;...&lt;/font&gt;&lt;br&gt;&lt;/font&gt;&lt;/span&gt;" style="text;html=1;align=center;verticalAlign=middle;resizable=0;points=[];autosize=1;strokeColor=none;fillColor=none;fontColor=default;rotation=-90;fontStyle=1;" vertex="1" parent="1">
                    <mxGeometry x="-547.0000000000003" y="1320.9999999999998" width="50" height="60" as="geometry"/>
                </mxCell>
                <mxCell id="577" value="&lt;font style=&quot;font-size: 14px;&quot;&gt;&lt;font style=&quot;font-size: 14px;&quot;&gt;Automated DVCI a&lt;/font&gt;dmission&lt;/font&gt;" style="text;html=1;align=center;verticalAlign=middle;resizable=0;points=[];autosize=1;strokeColor=none;fillColor=none;fontSize=16;fontColor=default;container=0;rotation=0;" vertex="1" parent="1">
                    <mxGeometry x="-692.9999999999999" y="1415.9986014551334" width="200" height="30" as="geometry"/>
                </mxCell>
            </root>
        </mxGraphModel>
    </diagram>
</mxfile>